<mxfile host="65bd71144e">
    <diagram name="Page-1" id="5f0bae14-7c28-e335-631c-24af17079c00">
        <mxGraphModel dx="1660" dy="1123" grid="1" gridSize="10" guides="1" tooltips="1" connect="1" arrows="1" fold="1" page="1" pageScale="1" pageWidth="1920" pageHeight="1200" background="none" math="0" shadow="0">
            <root>
                <mxCell id="0"/>
                <mxCell id="1" parent="0"/>
                <mxCell id="ctWpIb9OF1Fhuvv7uokD-50" value="model" style="shape=umlFrame;whiteSpace=wrap;html=1;pointerEvents=0;strokeColor=#9673a6;width=60;height=31;fillColor=#e1d5e7;" parent="1" vertex="1">
                    <mxGeometry x="1250" y="1.5" width="510" height="780" as="geometry"/>
                </mxCell>
                <mxCell id="phjYExtVegsDnhLjMrPz-45" value="" style="rounded=0;whiteSpace=wrap;html=1;fillColor=none;strokeColor=#000000;" parent="1" vertex="1">
                    <mxGeometry x="144" y="23" width="200" height="737" as="geometry"/>
                </mxCell>
                <mxCell id="phjYExtVegsDnhLjMrPz-46" value="" style="rounded=0;whiteSpace=wrap;html=1;fillColor=none;strokeColor=#000000;" parent="1" vertex="1">
                    <mxGeometry x="420" y="23" width="200" height="737" as="geometry"/>
                </mxCell>
                <mxCell id="phjYExtVegsDnhLjMrPz-47" value="" style="rounded=0;whiteSpace=wrap;html=1;fillColor=none;strokeColor=#000000;" parent="1" vertex="1">
                    <mxGeometry x="700" y="23" width="200" height="737" as="geometry"/>
                </mxCell>
                <mxCell id="phjYExtVegsDnhLjMrPz-48" value="" style="rounded=0;whiteSpace=wrap;html=1;fillColor=none;strokeColor=#000000;" parent="1" vertex="1">
                    <mxGeometry x="999" y="23" width="200" height="737" as="geometry"/>
                </mxCell>
                <mxCell id="phjYExtVegsDnhLjMrPz-5" value="template" style="shape=umlFrame;whiteSpace=wrap;html=1;pointerEvents=0;strokeColor=#82b366;width=60;height=31;fillColor=#d5e8d4;" parent="1" vertex="1">
                    <mxGeometry x="71" y="107" width="1150" height="173" as="geometry"/>
                </mxCell>
                <mxCell id="phjYExtVegsDnhLjMrPz-1" value="myPhotoApp" style="shape=module;align=left;spacingLeft=20;align=center;verticalAlign=middle;whiteSpace=wrap;html=1;" parent="1" vertex="1">
                    <mxGeometry x="151" y="40" width="178" height="50" as="geometry"/>
                </mxCell>
                <mxCell id="phjYExtVegsDnhLjMrPz-2" value="userManagingApp" style="shape=module;align=left;spacingLeft=20;align=center;verticalAlign=middle;whiteSpace=wrap;html=1;" parent="1" vertex="1">
                    <mxGeometry x="431" y="40" width="178" height="50" as="geometry"/>
                </mxCell>
                <mxCell id="phjYExtVegsDnhLjMrPz-3" value="fileDeidentificationApp" style="shape=module;align=left;spacingLeft=20;align=center;verticalAlign=middle;whiteSpace=wrap;html=1;" parent="1" vertex="1">
                    <mxGeometry x="711" y="40" width="178" height="50" as="geometry"/>
                </mxCell>
                <mxCell id="phjYExtVegsDnhLjMrPz-4" value="realTimeDeidentificationApp" style="shape=module;align=left;spacingLeft=20;align=center;verticalAlign=middle;whiteSpace=wrap;html=1;" parent="1" vertex="1">
                    <mxGeometry x="1010" y="40" width="178" height="50" as="geometry"/>
                </mxCell>
                <mxCell id="phjYExtVegsDnhLjMrPz-6" value="내사진.html" style="html=1;whiteSpace=wrap;" parent="1" vertex="1">
                    <mxGeometry x="190" y="177" width="100" height="30" as="geometry"/>
                </mxCell>
                <mxCell id="phjYExtVegsDnhLjMrPz-7" value="실시간.html" style="html=1;whiteSpace=wrap;" parent="1" vertex="1">
                    <mxGeometry x="1049" y="177" width="100" height="30" as="geometry"/>
                </mxCell>
                <mxCell id="phjYExtVegsDnhLjMrPz-8" value="메인.html" style="html=1;whiteSpace=wrap;" parent="1" vertex="1">
                    <mxGeometry x="750" y="177" width="100" height="30" as="geometry"/>
                </mxCell>
                <mxCell id="phjYExtVegsDnhLjMrPz-10" value="회원가입.html" style="html=1;whiteSpace=wrap;" parent="1" vertex="1">
                    <mxGeometry x="470" y="117" width="100" height="30" as="geometry"/>
                </mxCell>
                <mxCell id="phjYExtVegsDnhLjMrPz-11" value="로그인.html" style="html=1;whiteSpace=wrap;" parent="1" vertex="1">
                    <mxGeometry x="470" y="157" width="100" height="30" as="geometry"/>
                </mxCell>
                <mxCell id="phjYExtVegsDnhLjMrPz-12" value="마이페이지.html" style="html=1;whiteSpace=wrap;" parent="1" vertex="1">
                    <mxGeometry x="470" y="197" width="100" height="30" as="geometry"/>
                </mxCell>
                <mxCell id="phjYExtVegsDnhLjMrPz-13" value="내정보수정.html" style="html=1;whiteSpace=wrap;" parent="1" vertex="1">
                    <mxGeometry x="470" y="237" width="100" height="30" as="geometry"/>
                </mxCell>
                <mxCell id="phjYExtVegsDnhLjMrPz-17" value="사진 선택/해제" style="html=1;whiteSpace=wrap;" parent="1" vertex="1">
                    <mxGeometry x="189" y="365" width="100" height="30" as="geometry"/>
                </mxCell>
                <mxCell id="phjYExtVegsDnhLjMrPz-18" value="사진 삭제" style="html=1;whiteSpace=wrap;" parent="1" vertex="1">
                    <mxGeometry x="189" y="405" width="100" height="30" as="geometry"/>
                </mxCell>
                <mxCell id="phjYExtVegsDnhLjMrPz-19" value="사진 다운로드" style="html=1;whiteSpace=wrap;" parent="1" vertex="1">
                    <mxGeometry x="189" y="445" width="100" height="30" as="geometry"/>
                </mxCell>
                <mxCell id="phjYExtVegsDnhLjMrPz-20" value="용량 확인" style="html=1;whiteSpace=wrap;" parent="1" vertex="1">
                    <mxGeometry x="189" y="485" width="100" height="30" as="geometry"/>
                </mxCell>
                <mxCell id="phjYExtVegsDnhLjMrPz-21" value="실시간 녹화" style="html=1;whiteSpace=wrap;" parent="1" vertex="1">
                    <mxGeometry x="1049" y="415" width="100" height="30" as="geometry"/>
                </mxCell>
                <mxCell id="phjYExtVegsDnhLjMrPz-22" value="실시간 촬영" style="html=1;whiteSpace=wrap;" parent="1" vertex="1">
                    <mxGeometry x="1049" y="455" width="100" height="30" as="geometry"/>
                </mxCell>
                <mxCell id="phjYExtVegsDnhLjMrPz-23" value="파일 업로드" style="html=1;whiteSpace=wrap;" parent="1" vertex="1">
                    <mxGeometry x="750" y="425" width="100" height="30" as="geometry"/>
                </mxCell>
                <mxCell id="phjYExtVegsDnhLjMrPz-27" value="회원가입" style="html=1;whiteSpace=wrap;" parent="1" vertex="1">
                    <mxGeometry x="469" y="306.5" width="100" height="30" as="geometry"/>
                </mxCell>
                <mxCell id="phjYExtVegsDnhLjMrPz-28" value="로그인" style="html=1;whiteSpace=wrap;" parent="1" vertex="1">
                    <mxGeometry x="469" y="346.5" width="100" height="30" as="geometry"/>
                </mxCell>
                <mxCell id="phjYExtVegsDnhLjMrPz-29" value="내 정보 확인" style="html=1;whiteSpace=wrap;" parent="1" vertex="1">
                    <mxGeometry x="469" y="386.5" width="100" height="30" as="geometry"/>
                </mxCell>
                <mxCell id="phjYExtVegsDnhLjMrPz-30" value="내 정보 수정" style="html=1;whiteSpace=wrap;" parent="1" vertex="1">
                    <mxGeometry x="469" y="426.5" width="100" height="30" as="geometry"/>
                </mxCell>
                <mxCell id="phjYExtVegsDnhLjMrPz-31" value="회원탈퇴" style="html=1;whiteSpace=wrap;" parent="1" vertex="1">
                    <mxGeometry x="469" y="465.5" width="100" height="30" as="geometry"/>
                </mxCell>
                <mxCell id="phjYExtVegsDnhLjMrPz-33" value="MYPHOTO" style="html=1;whiteSpace=wrap;" parent="1" vertex="1">
                    <mxGeometry x="189" y="664" width="100" height="30" as="geometry"/>
                </mxCell>
                <mxCell id="phjYExtVegsDnhLjMrPz-37" value="USER" style="html=1;whiteSpace=wrap;" parent="1" vertex="1">
                    <mxGeometry x="469" y="664" width="100" height="30" as="geometry"/>
                </mxCell>
                <mxCell id="phjYExtVegsDnhLjMrPz-41" value="VOV" style="shape=umlFrame;whiteSpace=wrap;html=1;pointerEvents=0;strokeColor=#d6b656;width=60;height=31;fillColor=#fff2cc;" parent="1" vertex="1">
                    <mxGeometry x="2" width="1238" height="780" as="geometry"/>
                </mxCell>
                <mxCell id="phjYExtVegsDnhLjMrPz-34" value="FREQUENCY" style="html=1;whiteSpace=wrap;" parent="1" vertex="1">
                    <mxGeometry x="893" y="654" width="110" height="30" as="geometry"/>
                </mxCell>
                <mxCell id="phjYExtVegsDnhLjMrPz-54" value="" style="endArrow=classic;startArrow=classic;html=1;rounded=0;entryX=1;entryY=0;entryDx=0;entryDy=0;exitX=0;exitY=0;exitDx=0;exitDy=0;" parent="1" source="phjYExtVegsDnhLjMrPz-34" target="phjYExtVegsDnhLjMrPz-34" edge="1">
                    <mxGeometry width="50" height="50" relative="1" as="geometry">
                        <mxPoint x="893" y="654" as="sourcePoint"/>
                        <mxPoint x="997.1999999999998" y="654" as="targetPoint"/>
                    </mxGeometry>
                </mxCell>
                <mxCell id="phjYExtVegsDnhLjMrPz-36" value="MYPHOTO" style="html=1;whiteSpace=wrap;" parent="1" vertex="1">
                    <mxGeometry x="893" y="694" width="110" height="30" as="geometry"/>
                </mxCell>
                <mxCell id="phjYExtVegsDnhLjMrPz-55" value="" style="endArrow=classic;startArrow=classic;html=1;rounded=0;entryX=1;entryY=0;entryDx=0;entryDy=0;exitX=0;exitY=0;exitDx=0;exitDy=0;" parent="1" source="phjYExtVegsDnhLjMrPz-36" target="phjYExtVegsDnhLjMrPz-36" edge="1">
                    <mxGeometry width="50" height="50" relative="1" as="geometry">
                        <mxPoint x="893" y="694" as="sourcePoint"/>
                        <mxPoint x="997.1999999999998" y="694" as="targetPoint"/>
                    </mxGeometry>
                </mxCell>
                <mxCell id="phjYExtVegsDnhLjMrPz-26" value="파일 다운로드" style="html=1;whiteSpace=wrap;" parent="1" vertex="1">
                    <mxGeometry x="893" y="418" width="110" height="30" as="geometry"/>
                </mxCell>
                <mxCell id="phjYExtVegsDnhLjMrPz-53" value="" style="endArrow=classic;startArrow=classic;html=1;rounded=0;exitX=0;exitY=0;exitDx=0;exitDy=0;entryX=1;entryY=0;entryDx=0;entryDy=0;" parent="1" source="phjYExtVegsDnhLjMrPz-26" target="phjYExtVegsDnhLjMrPz-26" edge="1">
                    <mxGeometry width="50" height="50" relative="1" as="geometry">
                        <mxPoint x="896.9999999999999" y="418" as="sourcePoint"/>
                        <mxPoint x="997.1999999999998" y="418" as="targetPoint"/>
                    </mxGeometry>
                </mxCell>
                <mxCell id="phjYExtVegsDnhLjMrPz-25" value="지문 비식별화" style="html=1;whiteSpace=wrap;" parent="1" vertex="1">
                    <mxGeometry x="893" y="381" width="110" height="30" as="geometry"/>
                </mxCell>
                <mxCell id="phjYExtVegsDnhLjMrPz-52" value="" style="endArrow=classic;startArrow=classic;html=1;rounded=0;exitX=0;exitY=0;exitDx=0;exitDy=0;entryX=1;entryY=0;entryDx=0;entryDy=0;" parent="1" source="phjYExtVegsDnhLjMrPz-25" target="phjYExtVegsDnhLjMrPz-25" edge="1">
                    <mxGeometry width="50" height="50" relative="1" as="geometry">
                        <mxPoint x="896.9999999999999" y="381" as="sourcePoint"/>
                        <mxPoint x="997.1999999999998" y="381" as="targetPoint"/>
                    </mxGeometry>
                </mxCell>
                <mxCell id="phjYExtVegsDnhLjMrPz-24" value="지문 인식" style="html=1;whiteSpace=wrap;" parent="1" vertex="1">
                    <mxGeometry x="893" y="342" width="110" height="30" as="geometry"/>
                </mxCell>
                <mxCell id="phjYExtVegsDnhLjMrPz-51" value="" style="endArrow=classic;startArrow=classic;html=1;rounded=0;exitX=0;exitY=0;exitDx=0;exitDy=0;entryX=1;entryY=0;entryDx=0;entryDy=0;" parent="1" source="phjYExtVegsDnhLjMrPz-24" target="phjYExtVegsDnhLjMrPz-24" edge="1">
                    <mxGeometry width="50" height="50" relative="1" as="geometry">
                        <mxPoint x="897.9999999999999" y="342" as="sourcePoint"/>
                        <mxPoint x="998.1999999999998" y="342" as="targetPoint"/>
                    </mxGeometry>
                </mxCell>
                <mxCell id="phjYExtVegsDnhLjMrPz-9" value="알림.html" style="html=1;whiteSpace=wrap;" parent="1" vertex="1">
                    <mxGeometry x="894" y="207" width="110" height="30" as="geometry"/>
                </mxCell>
                <mxCell id="phjYExtVegsDnhLjMrPz-50" value="" style="endArrow=classic;startArrow=classic;html=1;rounded=0;exitX=0;exitY=0;exitDx=0;exitDy=0;entryX=1;entryY=0;entryDx=0;entryDy=0;" parent="1" source="phjYExtVegsDnhLjMrPz-9" target="phjYExtVegsDnhLjMrPz-9" edge="1">
                    <mxGeometry width="50" height="50" relative="1" as="geometry">
                        <mxPoint x="897.9999999999999" y="205.95" as="sourcePoint"/>
                        <mxPoint x="998.1999999999999" y="205.95" as="targetPoint"/>
                    </mxGeometry>
                </mxCell>
                <mxCell id="phjYExtVegsDnhLjMrPz-16" value="view" style="shape=umlFrame;whiteSpace=wrap;html=1;pointerEvents=0;strokeColor=#6c8ebf;fillColor=#dae8fc;" parent="1" vertex="1">
                    <mxGeometry x="70" y="293" width="1150" height="294" as="geometry"/>
                </mxCell>
                <mxCell id="phjYExtVegsDnhLjMrPz-32" value="model" style="shape=umlFrame;whiteSpace=wrap;html=1;pointerEvents=0;strokeColor=#b85450;width=60;height=31;fillColor=#f8cecc;" parent="1" vertex="1">
                    <mxGeometry x="70" y="605" width="1150" height="130" as="geometry"/>
                </mxCell>
                <mxCell id="ctWpIb9OF1Fhuvv7uokD-2" value="비밀번호 확인" style="html=1;whiteSpace=wrap;" parent="1" vertex="1">
                    <mxGeometry x="469" y="505" width="100" height="30" as="geometry"/>
                </mxCell>
                <mxCell id="ctWpIb9OF1Fhuvv7uokD-3" value="이메일 확인" style="html=1;whiteSpace=wrap;" parent="1" vertex="1">
                    <mxGeometry x="469" y="544" width="100" height="30" as="geometry"/>
                </mxCell>
                <mxCell id="ctWpIb9OF1Fhuvv7uokD-4" value="이메일 전송" style="html=1;whiteSpace=wrap;" parent="1" vertex="1">
                    <mxGeometry x="894" y="455" width="110" height="30" as="geometry"/>
                </mxCell>
                <mxCell id="ctWpIb9OF1Fhuvv7uokD-5" value="" style="endArrow=classic;startArrow=classic;html=1;rounded=0;exitX=0;exitY=0;exitDx=0;exitDy=0;entryX=1;entryY=0;entryDx=0;entryDy=0;" parent="1" source="ctWpIb9OF1Fhuvv7uokD-4" target="ctWpIb9OF1Fhuvv7uokD-4" edge="1">
                    <mxGeometry width="50" height="50" relative="1" as="geometry">
                        <mxPoint x="897.9999999999999" y="455" as="sourcePoint"/>
                        <mxPoint x="998.1999999999998" y="455" as="targetPoint"/>
                    </mxGeometry>
                </mxCell>
                <mxCell id="ctWpIb9OF1Fhuvv7uokD-6" value="파일 형태 규격화" style="html=1;whiteSpace=wrap;" parent="1" vertex="1">
                    <mxGeometry x="894" y="493.5" width="110" height="30" as="geometry"/>
                </mxCell>
                <mxCell id="ctWpIb9OF1Fhuvv7uokD-7" value="" style="endArrow=classic;startArrow=classic;html=1;rounded=0;exitX=0;exitY=0;exitDx=0;exitDy=0;entryX=1;entryY=0;entryDx=0;entryDy=0;" parent="1" source="ctWpIb9OF1Fhuvv7uokD-6" target="ctWpIb9OF1Fhuvv7uokD-6" edge="1">
                    <mxGeometry width="50" height="50" relative="1" as="geometry">
                        <mxPoint x="897.9999999999999" y="493.5" as="sourcePoint"/>
                        <mxPoint x="998.1999999999998" y="493.5" as="targetPoint"/>
                    </mxGeometry>
                </mxCell>
                <mxCell id="ctWpIb9OF1Fhuvv7uokD-8" value="USER" style="html=1;whiteSpace=wrap;" parent="1" vertex="1">
                    <mxGeometry x="893" y="615" width="110" height="30" as="geometry"/>
                </mxCell>
                <mxCell id="ctWpIb9OF1Fhuvv7uokD-9" value="" style="endArrow=classic;startArrow=classic;html=1;rounded=0;entryX=1;entryY=0;entryDx=0;entryDy=0;exitX=0;exitY=0;exitDx=0;exitDy=0;" parent="1" source="ctWpIb9OF1Fhuvv7uokD-8" target="ctWpIb9OF1Fhuvv7uokD-8" edge="1">
                    <mxGeometry width="50" height="50" relative="1" as="geometry">
                        <mxPoint x="893" y="615" as="sourcePoint"/>
                        <mxPoint x="997.1999999999998" y="615" as="targetPoint"/>
                    </mxGeometry>
                </mxCell>
                <mxCell id="ctWpIb9OF1Fhuvv7uokD-56" style="edgeStyle=orthogonalEdgeStyle;rounded=0;orthogonalLoop=1;jettySize=auto;html=1;exitX=0.5;exitY=1;exitDx=0;exitDy=0;entryX=0.352;entryY=0.934;entryDx=0;entryDy=0;entryPerimeter=0;" parent="1" source="ctWpIb9OF1Fhuvv7uokD-10" target="ctWpIb9OF1Fhuvv7uokD-50" edge="1">
                    <mxGeometry relative="1" as="geometry"/>
                </mxCell>
                <mxCell id="ctWpIb9OF1Fhuvv7uokD-10" value="지문 유무 식별" style="shape=module;align=left;spacingLeft=20;align=center;verticalAlign=middle;whiteSpace=wrap;html=1;" parent="1" vertex="1">
                    <mxGeometry x="1340" y="40" width="178" height="50" as="geometry"/>
                </mxCell>
                <mxCell id="ctWpIb9OF1Fhuvv7uokD-44" value="" style="group" parent="1" vertex="1" connectable="0">
                    <mxGeometry x="1369.5" y="465.5" width="322" height="33.5" as="geometry"/>
                </mxCell>
                <mxCell id="ctWpIb9OF1Fhuvv7uokD-13" value="모델 해석" style="html=1;whiteSpace=wrap;" parent="ctWpIb9OF1Fhuvv7uokD-44" vertex="1">
                    <mxGeometry width="121" height="30" as="geometry"/>
                </mxCell>
                <mxCell id="ctWpIb9OF1Fhuvv7uokD-26" value="" style="group" parent="ctWpIb9OF1Fhuvv7uokD-44" vertex="1" connectable="0">
                    <mxGeometry x="201" y="3.5" width="121" height="30" as="geometry"/>
                </mxCell>
                <mxCell id="ctWpIb9OF1Fhuvv7uokD-27" value="" style="group" parent="ctWpIb9OF1Fhuvv7uokD-26" vertex="1" connectable="0">
                    <mxGeometry y="-3" width="121" height="30" as="geometry"/>
                </mxCell>
                <mxCell id="ctWpIb9OF1Fhuvv7uokD-28" value="정확도 높이기" style="html=1;whiteSpace=wrap;" parent="ctWpIb9OF1Fhuvv7uokD-27" vertex="1">
                    <mxGeometry width="121" height="30" as="geometry"/>
                </mxCell>
                <mxCell id="ctWpIb9OF1Fhuvv7uokD-29" value="" style="endArrow=classic;html=1;rounded=0;exitX=1;exitY=0.5;exitDx=0;exitDy=0;entryX=0;entryY=0.5;entryDx=0;entryDy=0;" parent="ctWpIb9OF1Fhuvv7uokD-44" source="ctWpIb9OF1Fhuvv7uokD-13" target="ctWpIb9OF1Fhuvv7uokD-28" edge="1">
                    <mxGeometry width="50" height="50" relative="1" as="geometry">
                        <mxPoint x="-189" y="109" as="sourcePoint"/>
                        <mxPoint x="171" y="67" as="targetPoint"/>
                    </mxGeometry>
                </mxCell>
                <mxCell id="ctWpIb9OF1Fhuvv7uokD-45" value="" style="group" parent="1" vertex="1" connectable="0">
                    <mxGeometry x="1369.5" y="263.5" width="332" height="86" as="geometry"/>
                </mxCell>
                <mxCell id="ctWpIb9OF1Fhuvv7uokD-12" value="모델 설계" style="html=1;whiteSpace=wrap;" parent="ctWpIb9OF1Fhuvv7uokD-45" vertex="1">
                    <mxGeometry y="56" width="121" height="30" as="geometry"/>
                </mxCell>
                <mxCell id="ctWpIb9OF1Fhuvv7uokD-22" value="" style="group" parent="ctWpIb9OF1Fhuvv7uokD-45" vertex="1" connectable="0">
                    <mxGeometry x="201" y="56" width="121" height="30" as="geometry"/>
                </mxCell>
                <mxCell id="ctWpIb9OF1Fhuvv7uokD-19" value="" style="group" parent="ctWpIb9OF1Fhuvv7uokD-22" vertex="1" connectable="0">
                    <mxGeometry width="121" height="30" as="geometry"/>
                </mxCell>
                <mxCell id="ctWpIb9OF1Fhuvv7uokD-20" value="최적 알고리즘 선택" style="html=1;whiteSpace=wrap;" parent="ctWpIb9OF1Fhuvv7uokD-19" vertex="1">
                    <mxGeometry width="121" height="30" as="geometry"/>
                </mxCell>
                <mxCell id="ctWpIb9OF1Fhuvv7uokD-35" value="" style="group" parent="ctWpIb9OF1Fhuvv7uokD-45" vertex="1" connectable="0">
                    <mxGeometry x="161" width="121" height="30" as="geometry"/>
                </mxCell>
                <mxCell id="ctWpIb9OF1Fhuvv7uokD-36" value="" style="group" parent="ctWpIb9OF1Fhuvv7uokD-35" vertex="1" connectable="0">
                    <mxGeometry x="25" width="71" height="30" as="geometry"/>
                </mxCell>
                <mxCell id="ctWpIb9OF1Fhuvv7uokD-37" value="CNN" style="html=1;whiteSpace=wrap;" parent="ctWpIb9OF1Fhuvv7uokD-36" vertex="1">
                    <mxGeometry width="71" height="30" as="geometry"/>
                </mxCell>
                <mxCell id="ctWpIb9OF1Fhuvv7uokD-39" value="" style="group" parent="ctWpIb9OF1Fhuvv7uokD-45" vertex="1" connectable="0">
                    <mxGeometry x="261" width="71" height="30" as="geometry"/>
                </mxCell>
                <mxCell id="ctWpIb9OF1Fhuvv7uokD-40" value="" style="group" parent="ctWpIb9OF1Fhuvv7uokD-39" vertex="1" connectable="0">
                    <mxGeometry width="71" height="30" as="geometry"/>
                </mxCell>
                <mxCell id="ctWpIb9OF1Fhuvv7uokD-41" value="YOLO" style="html=1;whiteSpace=wrap;" parent="ctWpIb9OF1Fhuvv7uokD-40" vertex="1">
                    <mxGeometry width="71" height="30" as="geometry"/>
                </mxCell>
                <mxCell id="ctWpIb9OF1Fhuvv7uokD-42" value="" style="endArrow=classic;html=1;rounded=0;entryX=0.5;entryY=0;entryDx=0;entryDy=0;exitX=0.5;exitY=1;exitDx=0;exitDy=0;" parent="ctWpIb9OF1Fhuvv7uokD-45" source="ctWpIb9OF1Fhuvv7uokD-41" target="ctWpIb9OF1Fhuvv7uokD-20" edge="1">
                    <mxGeometry width="50" height="50" relative="1" as="geometry">
                        <mxPoint x="242" y="43" as="sourcePoint"/>
                        <mxPoint x="272" y="66" as="targetPoint"/>
                    </mxGeometry>
                </mxCell>
                <mxCell id="ctWpIb9OF1Fhuvv7uokD-38" value="" style="endArrow=classic;html=1;rounded=0;entryX=0.5;entryY=0;entryDx=0;entryDy=0;exitX=0.5;exitY=1;exitDx=0;exitDy=0;" parent="ctWpIb9OF1Fhuvv7uokD-45" source="ctWpIb9OF1Fhuvv7uokD-37" target="ctWpIb9OF1Fhuvv7uokD-20" edge="1">
                    <mxGeometry width="50" height="50" relative="1" as="geometry">
                        <mxPoint x="-179" y="109" as="sourcePoint"/>
                        <mxPoint x="-129" y="59" as="targetPoint"/>
                    </mxGeometry>
                </mxCell>
                <mxCell id="ctWpIb9OF1Fhuvv7uokD-21" value="" style="endArrow=classic;html=1;rounded=0;entryX=1;entryY=0.5;entryDx=0;entryDy=0;exitX=0;exitY=0.5;exitDx=0;exitDy=0;" parent="ctWpIb9OF1Fhuvv7uokD-45" source="ctWpIb9OF1Fhuvv7uokD-20" target="ctWpIb9OF1Fhuvv7uokD-12" edge="1">
                    <mxGeometry width="50" height="50" relative="1" as="geometry">
                        <mxPoint x="1150" y="399" as="sourcePoint"/>
                        <mxPoint x="1200" y="349" as="targetPoint"/>
                    </mxGeometry>
                </mxCell>
                <mxCell id="ctWpIb9OF1Fhuvv7uokD-46" value="" style="group" parent="1" vertex="1" connectable="0">
                    <mxGeometry x="1368.5" y="100" width="322" height="90" as="geometry"/>
                </mxCell>
                <mxCell id="ctWpIb9OF1Fhuvv7uokD-11" value="데이터셋 구축" style="html=1;whiteSpace=wrap;" parent="ctWpIb9OF1Fhuvv7uokD-46" vertex="1">
                    <mxGeometry y="60" width="121" height="30" as="geometry"/>
                </mxCell>
                <mxCell id="ctWpIb9OF1Fhuvv7uokD-18" value="" style="group" parent="ctWpIb9OF1Fhuvv7uokD-46" vertex="1" connectable="0">
                    <mxGeometry x="201" y="60" width="121" height="30" as="geometry"/>
                </mxCell>
                <mxCell id="ctWpIb9OF1Fhuvv7uokD-16" value="지문 유무 라벨링" style="html=1;whiteSpace=wrap;" parent="ctWpIb9OF1Fhuvv7uokD-18" vertex="1">
                    <mxGeometry width="121" height="30" as="geometry"/>
                </mxCell>
                <mxCell id="ctWpIb9OF1Fhuvv7uokD-32" value="" style="group" parent="ctWpIb9OF1Fhuvv7uokD-46" vertex="1" connectable="0">
                    <mxGeometry x="201" width="121" height="30" as="geometry"/>
                </mxCell>
                <mxCell id="ctWpIb9OF1Fhuvv7uokD-33" value="지문 데이터 수집" style="html=1;whiteSpace=wrap;" parent="ctWpIb9OF1Fhuvv7uokD-32" vertex="1">
                    <mxGeometry width="121" height="30" as="geometry"/>
                </mxCell>
                <mxCell id="ctWpIb9OF1Fhuvv7uokD-34" value="" style="endArrow=classic;html=1;rounded=0;entryX=0.5;entryY=0;entryDx=0;entryDy=0;exitX=0.5;exitY=1;exitDx=0;exitDy=0;" parent="ctWpIb9OF1Fhuvv7uokD-46" source="ctWpIb9OF1Fhuvv7uokD-33" target="ctWpIb9OF1Fhuvv7uokD-16" edge="1">
                    <mxGeometry width="50" height="50" relative="1" as="geometry">
                        <mxPoint x="-149" y="103" as="sourcePoint"/>
                        <mxPoint x="-99" y="53" as="targetPoint"/>
                    </mxGeometry>
                </mxCell>
                <mxCell id="ctWpIb9OF1Fhuvv7uokD-17" value="" style="endArrow=classic;html=1;rounded=0;entryX=1;entryY=0.5;entryDx=0;entryDy=0;exitX=0;exitY=0.5;exitDx=0;exitDy=0;" parent="ctWpIb9OF1Fhuvv7uokD-46" source="ctWpIb9OF1Fhuvv7uokD-16" target="ctWpIb9OF1Fhuvv7uokD-11" edge="1">
                    <mxGeometry width="50" height="50" relative="1" as="geometry">
                        <mxPoint x="1150" y="273" as="sourcePoint"/>
                        <mxPoint x="1200" y="223" as="targetPoint"/>
                    </mxGeometry>
                </mxCell>
                <mxCell id="ctWpIb9OF1Fhuvv7uokD-30" value="모델 배포" style="html=1;whiteSpace=wrap;" parent="1" vertex="1">
                    <mxGeometry x="1369.5" y="624" width="121" height="30" as="geometry"/>
                </mxCell>
                <mxCell id="2" value="" style="group" vertex="1" connectable="0" parent="1">
                    <mxGeometry x="1569.5" y="627" width="121" height="30" as="geometry"/>
                </mxCell>
                <mxCell id="3" value="" style="group" vertex="1" connectable="0" parent="2">
                    <mxGeometry y="-3" width="121" height="30" as="geometry"/>
                </mxCell>
                <mxCell id="4" value="best.pt" style="html=1;whiteSpace=wrap;" vertex="1" parent="3">
                    <mxGeometry width="121" height="30" as="geometry"/>
                </mxCell>
                <mxCell id="5" value="" style="endArrow=classic;html=1;rounded=0;exitX=1;exitY=0.5;exitDx=0;exitDy=0;entryX=0;entryY=0.5;entryDx=0;entryDy=0;" edge="1" parent="1" target="4">
                    <mxGeometry width="50" height="50" relative="1" as="geometry">
                        <mxPoint x="1489.5" y="638.5" as="sourcePoint"/>
                        <mxPoint x="170" y="225" as="targetPoint"/>
                    </mxGeometry>
                </mxCell>
            </root>
        </mxGraphModel>
    </diagram>
</mxfile>